<?xml version="1.0" encoding="utf-8"?>
<!-- Generator: Adobe Illustrator 26.0.2, SVG Export Plug-In . SVG Version: 6.00 Build 0)  -->
<svg version="1.1" id="Layer_1" xmlns="http://www.w3.org/2000/svg" xmlns:xlink="http://www.w3.org/1999/xlink" x="0px" y="0px"
	 viewBox="0 0 240.3 94.2" style="enable-background:new 0 0 240.3 94.2;" xml:space="preserve">
<style type="text/css">
	.st0{fill:#2BAAE1;}
</style>
<path id="Path_463" d="M228.9,53.6c0,3.4-2.8,6.2-6.2,6.2c-1.6,0-3.2-0.7-4.4-1.8l-7.6-7.6c-1.4-1.4-3.7-1.4-5.2,0l-14.3,14.3
	c-2.4,2.4-6.4,2.3-8.7-0.1c-2.4-2.4-2.4-6.2,0-8.7l16.4-16.4l1.8,1.8c3.4,3.4,8.9,3.4,12.3,0l3.1-3.1l11,11
	C228.3,50.3,228.9,51.9,228.9,53.6z"/>
<path id="Path_464" d="M0,36.8c0-13.6,9.3-23.3,21.7-23.3c6.9,0,11.6,2.6,14.6,6.3c0,0,0,0,0.1,0l0,0l0,0c0.1-3,2.6-5.3,5.6-5.3h0.8
	c3.1,0,5.6,2.5,5.6,5.6l0,0v33.8c0,3.1-2.5,5.6-5.6,5.6l0,0h-0.9c-3,0-5.4-2.3-5.6-5.3l0,0l0,0l0,0c-3,3.7-7.7,6.3-14.6,6.3
	C9.3,60.3,0,50.4,0,36.8z M22.4,24.3C16.3,25,12.2,29.8,12,36.2c-0.3,7.6,5.9,14.2,13.5,13.4c6.3-0.7,10.8-5.9,10.8-12.5
	c0.1-7-5.5-12.7-12.5-12.8C23.3,24.2,22.9,24.3,22.4,24.3z"/>
<path id="Path_465" d="M111.6,24.4v18.5c0,4.7,2.6,6.7,6.6,6.7c0.8,0,1.6,0,2.5-0.1c2.8-0.3,5.4,1.7,5.8,4.6l0,0
	c0.3,2.7-1.6,5.3-4.3,5.7c-2,0.3-4,0.5-6,0.5c-9.9,0-16.5-5.1-16.5-15.7V24.4H97c-2.8,0-5-2.2-5-5l0,0c0-2.8,2.2-5,5-5h2.6V5.8
	c0-3.2,2.6-5.8,5.8-5.8l0,0l0,0c3.2,0,5.8,2.6,5.8,5.8l0,0v8.6h8c2.8,0,5,2.2,5,5l0,0c0,2.8-2.2,5-5,5
	C119.2,24.4,111.6,24.4,111.6,24.4z"/>
<path id="Path_466" d="M173.2,52.3c0.4,2.4-0.9,4.7-3.2,5.6c-4.2,1.6-8.6,2.4-13.1,2.4c-15.9,0-26.1-9.4-26.1-23.4
	c0-13.8,9.7-23.4,23.1-23.4c10.8,0,19.6,6.4,21.5,17.1c0.7,4.7-2.5,9.1-7.1,9.8c-0.5,0.1-0.9,0.1-1.4,0.1H143
	c-0.1,0-0.1,0.1-0.1,0.1l0,0c1.3,6.2,6.9,9.1,14.2,9.1c3.3,0,6.7-0.5,9.9-1.4c2.7-0.8,5.5,0.7,6.3,3.4
	C173.1,51.9,173.2,52.1,173.2,52.3L173.2,52.3z M164.3,32.5c0.1,0,0.1-0.1,0.1-0.1l0,0c-0.4-4.9-4.2-8.7-10.3-8.7
	c-6.4,0-10.6,3.7-11.2,8.7c0,0.1,0,0.1,0.1,0.1l0,0H164.3z"/>
<path id="Path_467" d="M85.1,20.2c0,2.2-1.4,4.2-3.5,4.9c-4.8,1.4-8.3,5.7-8.6,10.7l0,0v0.5v17.4c0,3.4-2.8,6.1-6.1,6.1
	s-6.1-2.8-6.1-6.1V20c0-3.3,2.7-6,6-6c3.1,0,5.6,2.3,6,5.3v-0.5c1.7-1.4,3.7-2.5,5.7-3.2c2.6-0.9,5.4,0.4,6.3,3
	C85,19.1,85.1,19.7,85.1,20.2z"/>
<g id="Group_292" transform="translate(96.937 421.585)">
	<path id="Path_468" d="M-95.2-341.1c0-0.4,0.3-0.7,0.7-0.7c0.4,0,0.7,0.3,0.7,0.7c0,0.4-0.3,0.7-0.7,0.7l0,0
		C-94.9-340.4-95.2-340.7-95.2-341.1z M-95-330.7v-8.3h0.9v8.3H-95z"/>
	<path id="Path_469" d="M-80.6-330.7v-5.6c0-1.6-0.8-2.1-2-2.1c-1.1,0-2.1,0.6-2.7,1.4v6.2h-0.9v-8.3h0.9v1.2c0.8-0.9,1.8-1.4,3-1.5
		c1.7,0,2.6,0.8,2.6,2.7v5.8L-80.6-330.7L-80.6-330.7z"/>
	<path id="Path_470" d="M-70.6-338.2v7.5h-0.9v-7.5h-1.4v-0.8h1.4v-0.8c0-1.6,0.9-2.6,2.2-2.6c0.4,0,0.8,0.1,1.1,0.3l-0.3,0.7
		c-0.2-0.1-0.5-0.2-0.8-0.2c-0.9,0-1.4,0.7-1.4,1.8v0.8h1.7v0.8L-70.6-338.2z"/>
	<path id="Path_471" d="M-62.6-334.9c-0.2-2.2,1.4-4.1,3.6-4.4c2.2-0.2,4.1,1.4,4.4,3.6c0,0.2,0,0.5,0,0.7c0,2.4-1.5,4.3-4,4.3
		C-61.1-330.5-62.6-332.5-62.6-334.9z M-55.6-334.9c0-1.8-1.1-3.5-3-3.5s-3,1.7-3,3.5c0,1.9,1.1,3.5,3,3.5
		C-56.7-331.3-55.6-333-55.6-334.9L-55.6-334.9z"/>
	<path id="Path_472" d="M-47.2-330.7v-8.3h0.9v1.4c0.6-0.9,1.7-1.5,2.8-1.6v1c-0.1,0-0.3,0-0.4,0c-1,0.1-1.8,0.6-2.3,1.5v6H-47.2z"
		/>
	<path id="Path_473" d="M-26.8-330.7v-5.8c0-1.2-0.5-1.9-1.7-1.9c-1,0.1-1.8,0.6-2.4,1.4v6.3h-0.9v-5.8c0-1.2-0.5-1.9-1.7-1.9
		c-1,0.1-1.8,0.6-2.4,1.4v6.2h-0.9v-8.3h0.9v1.2c0.6-0.9,1.6-1.4,2.7-1.5c1-0.1,1.9,0.6,2.2,1.6c0.6-0.9,1.6-1.5,2.7-1.6
		c1.5,0,2.3,0.9,2.3,2.5v6L-26.8-330.7z"/>
	<path id="Path_474" d="M-12.8-330.7v-1c-0.7,0.8-1.7,1.2-2.8,1.2c-1.5,0.1-2.8-1.1-2.9-2.6v-0.1c0-1.5,1.2-2.7,2.7-2.7
		c0.1,0,0.1,0,0.2,0c1.1,0,2.1,0.4,2.8,1.2v-1.7c0-1.1-0.9-1.9-2-1.9c-0.1,0-0.1,0-0.2,0c-1,0-2,0.4-2.6,1.2l-0.5-0.6
		c0.8-0.9,2-1.4,3.2-1.4c1.7,0,3,0.8,3,2.7v5.8L-12.8-330.7z M-12.8-334.2c-0.6-0.8-1.5-1.2-2.5-1.1c-1.1-0.1-2.1,0.7-2.3,1.8
		c-0.1,1.1,0.7,2.1,1.8,2.3c0.1,0,0.3,0,0.4,0c1,0,1.9-0.4,2.5-1.1v-1.9H-12.8z"/>
	<path id="Path_475" d="M-0.4-339.2c1.2-0.1,2.3,0.5,2.9,1.4l-0.6,0.5c-0.5-0.7-1.4-1.2-2.3-1.1c-1.9,0-3.1,1.5-3.1,3.5
		s1.2,3.5,3.1,3.5c0.9,0,1.8-0.4,2.3-1.2l0.6,0.5c-0.7,0.9-1.8,1.5-2.9,1.4c-2.4-0.2-4.2-2.3-4-4.7C-4.3-337.3-2.6-339.1-0.4-339.2
		L-0.4-339.2z M-0.9-340.3l-1.7-2.5H-2l1.5,1.9l1.4-1.9h0.7L0-340.3H-0.9z"/>
	<path id="Path_476" d="M15.2-330.7v-5.6c0-1.6-0.8-2.1-2-2.1c-1.1,0-2.1,0.6-2.7,1.4v6.2H9.6v-8.3h0.9v1.2c0.8-0.9,1.8-1.4,3-1.5
		c1.7,0,2.6,0.8,2.6,2.7v5.8L15.2-330.7L15.2-330.7z"/>
	<path id="Path_477" d="M24-330.7v-8.3h0.9v8.3H24z M24.8-340.3H24l2.6-2.5h1.1L24.8-340.3z"/>
	<path id="Path_478" d="M42.2-332.5c0.7,0.8,1.6,1.2,2.7,1.2c1.4,0,2.2-0.7,2.2-1.6c0-1.1-1.1-1.4-2.3-1.7c-1.4-0.3-2.9-0.7-2.9-2.3
		c0-1.3,1.1-2.3,2.9-2.3c1.1-0.1,2.2,0.4,3,1.2l-0.5,0.6c-0.6-0.7-1.5-1.1-2.5-1.1c-1.3,0-2.1,0.6-2.1,1.5s1.1,1.2,2.2,1.5
		c1.4,0.4,3,0.8,3,2.5c0,1.3-1,2.4-3.1,2.4c-1.2,0.1-2.4-0.4-3.2-1.3L42.2-332.5z"/>
	<path id="Path_479" d="M55-328.3c0.2,0.1,0.5,0.1,0.7,0.1c0.5,0,0.9-0.2,1.2-1l0.7-1.5l-3.5-8.3h1l3,7.2l3-7.2h1l-4.3,10.1
		c-0.3,0.9-1.2,1.6-2.1,1.5c-0.3,0-0.6,0-0.9-0.1L55-328.3z"/>
	<path id="Path_480" d="M68.5-332.5c0.7,0.8,1.6,1.2,2.7,1.2c1.4,0,2.2-0.7,2.2-1.6c0-1.1-1.1-1.4-2.3-1.7c-1.4-0.3-2.9-0.7-2.9-2.3
		c0-1.3,1.1-2.3,2.9-2.3c1.1-0.1,2.2,0.4,3,1.2l-0.5,0.6c-0.6-0.7-1.5-1.1-2.5-1.1c-1.3,0-2.1,0.6-2.1,1.5s1.1,1.2,2.2,1.5
		c1.4,0.4,3,0.8,3,2.5c0,1.3-1,2.4-3.1,2.4c-1.2,0.1-2.4-0.4-3.2-1.3L68.5-332.5z"/>
	<path id="Path_481" d="M81.9-332.3v-5.9h-1.4v-0.8h1.4v-2.3h0.9v2.3h1.7v0.8h-1.7v5.8c0,0.7,0.3,1.1,0.9,1.1c0.3,0,0.7-0.1,0.9-0.4
		l0.3,0.7c-0.4,0.4-0.9,0.5-1.4,0.5C82.4-330.5,81.9-331.2,81.9-332.3z"/>
	<path id="Path_482" d="M95.1-339.2c2.5,0,3.9,2,3.9,4.4v0.2h-6.9c0,1.8,1.4,3.3,3.2,3.3h0.1c1,0,2-0.4,2.7-1.1l0.5,0.6
		c-0.8,0.9-2,1.4-3.2,1.3c-2.4-0.1-4.3-2.1-4.1-4.5C91.2-337.3,92.9-339,95.1-339.2L95.1-339.2z M92.1-335.3h6
		c0.1-1.7-1.2-3.1-2.9-3.1h-0.1C93.4-338.4,92-337,92.1-335.3z M95.4-340.3h-0.8l2.6-2.5h1.1L95.4-340.3z"/>
	<path id="Path_483" d="M116.3-330.7v-5.8c0-1.2-0.5-1.9-1.7-1.9c-1,0.1-1.8,0.6-2.4,1.4v6.3h-0.9v-5.8c0-1.2-0.5-1.9-1.7-1.9
		c-1,0.1-1.8,0.6-2.4,1.4v6.2h-0.9v-8.3h0.9v1.2c0.6-0.9,1.6-1.4,2.7-1.5c1-0.1,1.9,0.6,2.2,1.6c0.6-0.9,1.6-1.5,2.7-1.6
		c1.5,0,2.3,0.9,2.3,2.5v6L116.3-330.7z"/>
	<path id="Path_484" d="M124.7-328.3c0.2,0.1,0.5,0.1,0.7,0.1c0.5,0,0.9-0.2,1.2-1l0.7-1.5l-3.5-8.3h1l3,7.2l3-7.2h1l-4.3,10.1
		c-0.3,0.9-1.2,1.6-2.1,1.5c-0.3,0-0.6,0-0.9-0.1L124.7-328.3z"/>
</g>
<path class="st0" d="M240.3,8c0,1.6-0.6,3.2-1.8,4.4l-24.1,24.1l-3.1,3.1c-2.4,2.4-6.3,2.4-8.7,0l-1.8-1.8l-14-14
	c-2.4-2.4-2.5-6.3-0.1-8.7c2.4-2.4,6.3-2.5,8.7-0.1l0.1,0.1l9.1,9.1c1.3,1.3,3.3,1.3,4.6,0l0,0l20.5-20.5c2.4-2.4,6.3-2.4,8.7,0
	C239.7,4.7,240.3,6.3,240.3,8L240.3,8z"/>
</svg>
